<svg width="69" height="67" viewBox="0 0 69 67" fill="none" xmlns="http://www.w3.org/2000/svg">
<path d="M68.5 33.5C68.5 37.8315 67.6214 42.121 65.9139 46.1237C64.2065 50.1264 61.7034 53.7643 58.5469 56.8294C55.3903 59.8944 51.6421 62.3265 47.516 63.9861C43.3898 65.6457 38.967 66.5 34.5 66.5C30.033 66.5 25.6102 65.6457 21.484 63.9861C17.3579 62.3265 13.6097 59.8944 10.4531 56.8294C7.29661 53.7643 4.79352 50.1264 3.08606 46.1237C1.37861 42.121 0.5 37.8315 0.5 33.5C0.5 29.1685 1.37861 24.879 3.08606 20.8763C4.79353 16.8736 7.29661 13.2357 10.4531 10.1706C13.6097 7.10557 17.3579 4.67348 21.484 3.01392C25.6102 1.35434 30.0331 0.499999 34.5 0.5C38.967 0.500001 43.3898 1.35435 47.516 3.01392C51.6421 4.67349 55.3903 7.10558 58.5469 10.1706C61.7034 13.2357 64.2065 16.8736 65.9139 20.8763C67.6214 24.879 68.5 29.1685 68.5 33.5L68.5 33.5Z" stroke="white"/>
<mask id="path-2-inside-1_61:15" fill="white">
<path d="M61.7369 33.5C61.7369 39.4053 59.7015 45.1407 55.9551 49.7924C52.2086 54.4441 46.9666 57.7445 41.0643 59.1678C35.162 60.591 28.939 60.0552 23.3867 57.6456C17.8344 55.2361 13.2723 51.0916 10.4273 45.8723C7.58228 40.653 6.61803 34.6593 7.68817 28.8462C8.75832 23.033 11.8013 17.7349 16.3322 13.7959C20.8632 9.85686 26.6215 7.50363 32.6896 7.1111C38.7577 6.71858 44.7866 8.30934 49.8156 11.6299L49.227 12.4704C44.3912 9.27742 38.5941 7.74779 32.7592 8.12523C26.9242 8.50267 21.3873 10.7655 17.0304 14.5531C12.6736 18.3407 9.74757 23.4353 8.71856 29.025C7.68954 34.6148 8.61673 40.3781 11.3524 45.3968C14.0881 50.4155 18.4749 54.4008 23.8138 56.7177C29.1527 59.0346 35.1366 59.5499 40.8121 58.1813C46.4875 56.8128 51.5281 53.6393 55.1305 49.1663C58.733 44.6933 60.6902 39.1783 60.6902 33.5H61.7369Z"/>
</mask>
<path d="M61.7369 33.5C61.7369 39.4053 59.7015 45.1407 55.9551 49.7924C52.2086 54.4441 46.9666 57.7445 41.0643 59.1678C35.162 60.591 28.939 60.0552 23.3867 57.6456C17.8344 55.2361 13.2723 51.0916 10.4273 45.8723C7.58228 40.653 6.61803 34.6593 7.68817 28.8462C8.75832 23.033 11.8013 17.7349 16.3322 13.7959C20.8632 9.85686 26.6215 7.50363 32.6896 7.1111C38.7577 6.71858 44.7866 8.30934 49.8156 11.6299L49.227 12.4704C44.3912 9.27742 38.5941 7.74779 32.7592 8.12523C26.9242 8.50267 21.3873 10.7655 17.0304 14.5531C12.6736 18.3407 9.74757 23.4353 8.71856 29.025C7.68954 34.6148 8.61673 40.3781 11.3524 45.3968C14.0881 50.4155 18.4749 54.4008 23.8138 56.7177C29.1527 59.0346 35.1366 59.5499 40.8121 58.1813C46.4875 56.8128 51.5281 53.6393 55.1305 49.1663C58.733 44.6933 60.6902 39.1783 60.6902 33.5H61.7369Z" stroke="white" stroke-width="2" mask="url(#path-2-inside-1_61:15)"/>
<path d="M33.9545 42.2486C38.0383 42.2486 40.9591 40.0025 40.9502 36.8952C40.9591 34.6314 39.5209 33.0156 36.8487 32.6783V32.5362C38.8817 32.1722 40.2844 30.734 40.2755 28.6921C40.2844 25.8246 37.772 23.5696 34.0078 23.5696C30.2791 23.5696 27.4737 25.7536 27.4204 28.8963H31.1047C31.1491 27.5114 32.4186 26.6147 33.99 26.6147C35.5436 26.6147 36.5823 27.5558 36.5735 28.9229C36.5823 30.3523 35.3661 31.32 33.6171 31.32H31.9215V34.1431H33.6171C35.6768 34.1431 36.9641 35.1729 36.9552 36.6378C36.9641 38.0849 35.7212 39.0792 33.9634 39.0792C32.2677 39.0792 30.9982 38.1914 30.9272 36.8597H27.0564C27.1186 40.038 29.9595 42.2486 33.9545 42.2486Z" fill="#FAD264"/>
</svg>
