<svg width="69" height="67" viewBox="0 0 69 67" fill="none" xmlns="http://www.w3.org/2000/svg">
<path d="M68.5 33.5C68.5 37.8315 67.6214 42.121 65.9139 46.1237C64.2065 50.1264 61.7034 53.7643 58.5469 56.8294C55.3903 59.8944 51.6421 62.3265 47.516 63.9861C43.3898 65.6457 38.967 66.5 34.5 66.5C30.033 66.5 25.6102 65.6457 21.484 63.9861C17.3579 62.3265 13.6097 59.8944 10.4531 56.8294C7.29661 53.7643 4.79352 50.1264 3.08606 46.1237C1.37861 42.121 0.5 37.8315 0.5 33.5C0.5 29.1685 1.37861 24.879 3.08606 20.8763C4.79353 16.8736 7.29661 13.2357 10.4531 10.1706C13.6097 7.10557 17.3579 4.67348 21.484 3.01392C25.6102 1.35434 30.0331 0.499999 34.5 0.5C38.967 0.500001 43.3898 1.35435 47.516 3.01392C51.6421 4.67349 55.3903 7.10558 58.5469 10.1706C61.7034 13.2357 64.2065 16.8736 65.9139 20.8763C67.6214 24.879 68.5 29.1685 68.5 33.5L68.5 33.5Z" stroke="white"/>
<mask id="path-2-inside-1_61:31" fill="white">
<path d="M61.7369 33.5C61.7369 39.4053 59.7015 45.1407 55.9551 49.7924C52.2086 54.4441 46.9666 57.7445 41.0643 59.1678C35.162 60.591 28.939 60.0552 23.3867 57.6456C17.8344 55.2361 13.2723 51.0916 10.4273 45.8723C7.58228 40.653 6.61803 34.6593 7.68817 28.8462C8.75832 23.033 11.8013 17.7349 16.3322 13.7959C20.8632 9.85686 26.6215 7.50363 32.6896 7.1111C38.7577 6.71858 44.7866 8.30934 49.8156 11.6299L49.227 12.4704C44.3912 9.27742 38.5941 7.74779 32.7592 8.12523C26.9242 8.50267 21.3873 10.7655 17.0304 14.5531C12.6736 18.3407 9.74757 23.4353 8.71856 29.025C7.68954 34.6148 8.61673 40.3781 11.3524 45.3968C14.0881 50.4155 18.4749 54.4008 23.8138 56.7177C29.1527 59.0346 35.1366 59.5499 40.8121 58.1813C46.4875 56.8128 51.5281 53.6393 55.1305 49.1663C58.733 44.6933 60.6902 39.1783 60.6902 33.5H61.7369Z"/>
</mask>
<path d="M61.7369 33.5C61.7369 39.4053 59.7015 45.1407 55.9551 49.7924C52.2086 54.4441 46.9666 57.7445 41.0643 59.1678C35.162 60.591 28.939 60.0552 23.3867 57.6456C17.8344 55.2361 13.2723 51.0916 10.4273 45.8723C7.58228 40.653 6.61803 34.6593 7.68817 28.8462C8.75832 23.033 11.8013 17.7349 16.3322 13.7959C20.8632 9.85686 26.6215 7.50363 32.6896 7.1111C38.7577 6.71858 44.7866 8.30934 49.8156 11.6299L49.227 12.4704C44.3912 9.27742 38.5941 7.74779 32.7592 8.12523C26.9242 8.50267 21.3873 10.7655 17.0304 14.5531C12.6736 18.3407 9.74757 23.4353 8.71856 29.025C7.68954 34.6148 8.61673 40.3781 11.3524 45.3968C14.0881 50.4155 18.4749 54.4008 23.8138 56.7177C29.1527 59.0346 35.1366 59.5499 40.8121 58.1813C46.4875 56.8128 51.5281 53.6393 55.1305 49.1663C58.733 44.6933 60.6902 39.1783 60.6902 33.5H61.7369Z" stroke="white" stroke-width="2" mask="url(#path-2-inside-1_61:31)"/>
<path d="M26.7268 38.804H35.4537V42H39.1292V38.804H41.3841V35.7234H39.1292V23.8182H34.3174L26.7268 35.7766V38.804ZM35.5248 35.7234H30.5976V35.5813L35.3827 28.0085H35.5248V35.7234Z" fill="#FAD264"/>
</svg>
